<svg width="29" height="30" viewBox="0 0 29 30" fill="none" xmlns="http://www.w3.org/2000/svg">
<g clip-path="url(#clip0_188_1133)">
<path fill-rule="evenodd" clip-rule="evenodd" d="M26.6759 0.747559H2.32415C1.70775 0.747559 1.11659 0.992423 0.680729 1.42828C0.244868 1.86415 3.69932e-06 2.4553 3.69932e-06 3.0717V27.4234C-0.000540971 27.7284 0.0590657 28.0306 0.175413 28.3125C0.29176 28.5945 0.462563 28.8507 0.678049 29.0666C0.893535 29.2824 1.14947 29.4537 1.43122 29.5706C1.71297 29.6874 2.01499 29.7476 2.32 29.7476H26.68C27.2953 29.7476 27.8854 29.5031 28.3205 29.068C28.7556 28.633 29 28.0429 29 27.4276V3.0717C29 2.4553 28.7551 1.86415 28.3193 1.42828C27.8834 0.992423 27.2923 0.747559 26.6759 0.747559ZM10.5767 7.29728H18.2658L18.2741 7.28071C18.3965 7.28016 18.5179 7.30373 18.6312 7.35008C18.7445 7.39642 18.8475 7.46462 18.9345 7.5508C19.0214 7.63697 19.0905 7.73942 19.1379 7.85231C19.1852 7.96519 19.2099 8.0863 19.2104 8.20871V15.5416C19.1622 17.4246 18.6867 19.272 17.8197 20.9443C16.9527 22.6166 15.717 24.0699 14.2058 25.1944C14.1577 25.225 14.1032 25.2442 14.0465 25.2507C13.9898 25.2572 13.9324 25.2507 13.8786 25.2317C13.7955 25.1983 13.7207 25.1474 13.659 25.0826L11.1733 22.311C11.0966 22.2229 11.0501 22.1126 11.0407 21.9961C11.044 21.9248 11.0618 21.8549 11.0932 21.7908C11.1245 21.7267 11.1687 21.6697 11.223 21.6233C11.9565 21.0186 12.6094 20.3225 13.166 19.5518C13.7206 18.7273 14.0491 17.7716 14.1188 16.7803H10.5767C10.4543 16.7808 10.333 16.7573 10.2197 16.7109C10.1064 16.6646 10.0033 16.5964 9.91636 16.5102C9.82941 16.424 9.76029 16.3216 9.71295 16.2087C9.6656 16.0958 9.64095 15.9747 9.64041 15.8523V8.22528C9.64095 8.10287 9.6656 7.98176 9.71295 7.86888C9.76029 7.75599 9.82941 7.65354 9.91636 7.56737C10.0033 7.48119 10.1064 7.41299 10.2197 7.36665C10.333 7.32031 10.4543 7.29674 10.5767 7.29728Z" fill="#97BEAA"/>
</g>
<defs>
<clipPath id="clip0_188_1133">
<rect width="29" height="29" fill="white" transform="translate(0 0.747559)"/>
</clipPath>
</defs>
</svg>
