<svg width="32" height="27" viewBox="0 0 32 27" fill="none" xmlns="http://www.w3.org/2000/svg">
<g clip-path="url(#clip0_188_1139)">
<path d="M6.76897 9.83011C6.59738 9.8289 6.42741 9.86335 6.26983 9.93127C6.11225 9.99919 5.9705 10.0991 5.85355 10.2247C5.60914 10.4762 5.47241 10.8131 5.47241 11.1638C5.47241 11.5145 5.60914 11.8514 5.85355 12.1029C5.97065 12.2282 6.11243 12.328 6.26997 12.3959C6.42752 12.4638 6.59741 12.4984 6.76897 12.4974C7.11199 12.4842 7.43656 12.3386 7.67457 12.0913C7.91258 11.8439 8.04554 11.514 8.04554 11.1707C8.04554 10.8274 7.91258 10.4975 7.67457 10.2501C7.43656 10.0027 7.11199 9.85715 6.76897 9.84392V9.83011Z" fill="#97BEAA"/>
<path d="M17.8427 9.81988C17.6711 9.81831 17.501 9.85259 17.3433 9.92053C17.1857 9.98848 17.044 10.0886 16.9273 10.2145C16.6829 10.466 16.5461 10.8028 16.5461 11.1535C16.5461 11.5042 16.6829 11.8411 16.9273 12.0926C17.044 12.2185 17.1857 12.3186 17.3433 12.3865C17.501 12.4545 17.6711 12.4888 17.8427 12.4872C18.1043 12.4854 18.3595 12.4063 18.5763 12.2599C18.7931 12.1135 18.9619 11.9063 19.0613 11.6644C19.1608 11.4224 19.1866 11.1565 19.1355 10.8999C19.0843 10.6434 18.9585 10.4077 18.7739 10.2223C18.6547 10.0948 18.5105 9.99323 18.3503 9.92397C18.19 9.85472 18.0173 9.81928 17.8427 9.81988Z" fill="#97BEAA"/>
<path d="M25.2271 9.83012C25.0555 9.82867 24.8854 9.86301 24.7278 9.93095C24.5702 9.99889 24.4285 10.0989 24.3117 10.2247C24.0673 10.4762 23.9305 10.8131 23.9305 11.1638C23.9305 11.5145 24.0673 11.8514 24.3117 12.1029C24.4287 12.2284 24.5705 12.3282 24.728 12.3961C24.8856 12.464 25.0555 12.4985 25.2271 12.4974C25.5701 12.4842 25.8947 12.3386 26.1327 12.0913C26.3707 11.8439 26.5037 11.514 26.5037 11.1707C26.5037 10.8274 26.3707 10.4975 26.1327 10.2501C25.8947 10.0027 25.5701 9.85716 25.2271 9.84393V9.83012Z" fill="#97BEAA"/>
<path d="M28.51 0.09375H3.48804C2.56391 0.0968703 1.67853 0.465361 1.02507 1.11882C0.371611 1.77228 0.00312032 2.65766 0 3.58179L0 17.7332C0.00311727 18.6575 0.371545 19.5431 1.02495 20.1969C1.67835 20.8507 2.56373 21.2196 3.48804 21.2232H13.3149C13.3149 21.2232 15.2109 26.402 15.9033 26.402C16.5958 26.402 18.6476 21.2232 18.6476 21.2232H28.512C29.4363 21.2196 30.3216 20.8507 30.9751 20.1969C31.6285 19.5431 31.9969 18.6575 32 17.7332V3.58179C31.9969 2.65732 31.6281 1.77164 30.9742 1.11813C30.3203 0.464612 29.4345 0.0963503 28.51 0.09375ZM9.30012 13.1581C8.8069 13.7164 8.04538 13.9473 7.21677 13.9473C6.60925 13.9655 6.01319 13.7793 5.52404 13.4185H5.50037V13.8131H3.6143V5.61779H5.49445V8.75466H5.52404C6.03107 8.32063 6.70777 8.17464 7.49692 8.14899C8.17756 8.12532 8.87793 8.54357 9.30999 9.0427C9.7914 9.63559 10.0503 10.3782 10.0419 11.1418C10.0637 11.5109 10.0091 11.8805 9.88147 12.2274C9.75383 12.5744 9.55591 12.8912 9.30012 13.1581ZM13.3327 13.8782H11.417V8.80793C11.417 7.63802 10.4917 7.48413 10.4917 7.48413V5.45405C10.4917 5.45405 13.1768 5.61779 13.3327 8.87106V13.8782ZM20.8513 12.3256C20.6864 12.699 20.4467 13.0347 20.147 13.312C19.8425 13.5958 19.4861 13.8182 19.0974 13.967C18.6976 14.1201 18.2728 14.1977 17.8446 14.1958C17.4229 14.1974 17.0047 14.1198 16.6116 13.967C16.2238 13.8163 15.8678 13.5941 15.562 13.312C15.2591 13.0341 15.0143 12.6988 14.8419 12.3256C14.6818 11.9612 14.5992 11.5675 14.5992 11.1695C14.5992 10.7714 14.6818 10.3778 14.8419 10.0134C15.015 9.64054 15.2597 9.30538 15.562 9.02692C15.8678 8.7448 16.2238 8.52262 16.6116 8.37193C17.0048 8.21978 17.423 8.14282 17.8446 8.14505C18.2727 8.14249 18.6975 8.21942 19.0974 8.37193C19.4861 8.52071 19.8425 8.74311 20.147 9.02692C20.4467 9.30418 20.6864 9.63989 20.8513 10.0134C21.0088 10.3822 21.0901 10.7792 21.0901 11.1803C21.0901 11.5814 21.0088 11.9784 20.8513 12.3473V12.3256ZM28.3837 13.1404C28.3837 14.5786 28.1115 15.4565 27.4703 16.0661C26.7068 16.7902 25.6197 16.8415 24.7083 16.7113V15.2198C25.4718 15.2967 26.5233 14.7936 26.5213 13.8052V13.4225H26.4977C26.0695 14.0143 25.4441 14.2294 24.6116 14.2294C24.2557 14.2414 23.9015 14.1745 23.5744 14.0337C23.2474 13.8928 22.9555 13.6814 22.7196 13.4146C22.2658 12.8885 22.0396 12.1776 22.0409 11.2819C22.0409 10.2823 22.2928 9.48857 22.7965 8.90065C23.0525 8.61452 23.3688 8.38877 23.7226 8.23968C24.0764 8.09059 24.4589 8.02188 24.8424 8.03851C25.5803 8.03851 26.0439 8.21804 26.4977 8.63037H26.5213V8.18253H28.3877L28.3837 13.1404Z" fill="#97BEAA"/>
</g>
<defs>
<clipPath id="clip0_188_1139">
<rect width="32" height="26.3083" fill="white" transform="translate(0 0.09375)"/>
</clipPath>
</defs>
</svg>
