<svg width="32" height="31" viewBox="0 0 32 31" fill="none" xmlns="http://www.w3.org/2000/svg">
<g clip-path="url(#clip0_188_1146)">
<path d="M13.5102 0H21.078C21.1304 0.00010318 21.1823 0.0105897 21.2306 0.0308536C21.2789 0.0511174 21.3228 0.0807568 21.3596 0.118059C21.3966 0.155566 21.4258 0.200016 21.4455 0.24885C21.4652 0.297684 21.4751 0.34994 21.4746 0.402611C21.3535 6.71725 15.1357 7.72529 15.0692 7.73739H7.03207C6.97693 7.73805 6.92227 7.72712 6.87163 7.7053C6.82099 7.68348 6.7755 7.65126 6.73811 7.61073C6.70072 7.5702 6.67227 7.52227 6.6546 7.47004C6.63692 7.41781 6.63042 7.36244 6.63551 7.30754C7.17132 0.980796 13.4466 0 13.5102 0ZM27.2867 20.2819H24.1385C23.5331 23.639 21.187 30.4955 12.1782 30.4955C0.2452 30.4955 0 18.4656 0 18.4656V11.2519C0 11.1467 0.04178 11.0459 0.116149 10.9715C0.190518 10.8971 0.291383 10.8554 0.396557 10.8554H27.2867C28.5368 10.8554 29.7356 11.3519 30.6195 12.2358C31.5034 13.1198 32 14.3186 32 15.5686C32 16.8187 31.5034 18.0175 30.6195 18.9014C29.7356 19.7853 28.5368 20.2819 27.2867 20.2819ZM27.1747 13.2529C26.7221 13.2529 26.2796 13.3871 25.9033 13.6385C25.5269 13.89 25.2336 14.2474 25.0604 14.6656C24.8872 15.0838 24.8419 15.5439 24.9302 15.9879C25.0185 16.4318 25.2364 16.8396 25.5565 17.1596C25.8765 17.4797 26.2843 17.6976 26.7283 17.7859C27.1722 17.8742 27.6323 17.8289 28.0505 17.6557C28.4687 17.4825 28.8261 17.1892 29.0776 16.8128C29.329 16.4365 29.4632 15.994 29.4632 15.5414C29.4632 15.2409 29.4041 14.9433 29.289 14.6656C29.174 14.3879 29.0055 14.1357 28.793 13.9232C28.5804 13.7106 28.3282 13.5421 28.0505 13.4271C27.7728 13.3121 27.4753 13.2529 27.1747 13.2529Z" fill="#97BEAA"/>
</g>
<defs>
<clipPath id="clip0_188_1146">
<rect width="32" height="30.4955" fill="white"/>
</clipPath>
</defs>
</svg>
